<svg xmlns="http://www.w3.org/2000/svg" viewBox="0 0 1200 800">
  <defs>
    <!-- PwC Gradient Background -->
    <linearGradient id="bgGradient" x1="0%" y1="0%" x2="100%" y2="100%">
      <stop offset="0%" style="stop-color:#F1F1F1;stop-opacity:1" />
      <stop offset="50%" style="stop-color:#FFFFFF;stop-opacity:1" />
      <stop offset="100%" style="stop-color:#F8F8F8;stop-opacity:1" />
    </linearGradient>
    
    <!-- Patterns -->
    <pattern id="molecules" x="0" y="0" width="150" height="150" patternUnits="userSpaceOnUse">
      <circle cx="20" cy="20" r="3" fill="rgba(224, 60, 49, 0.1)"/>
      <circle cx="80" cy="60" r="2" fill="rgba(255, 182, 18, 0.15)"/>
      <line x1="20" y1="20" x2="80" y2="60" stroke="rgba(224, 60, 49, 0.08)" stroke-width="1"/>
    </pattern>
    
    <pattern id="dataPoints" x="0" y="0" width="100" height="80" patternUnits="userSpaceOnUse">
      <circle cx="10" cy="10" r="1" fill="rgba(224, 60, 49, 0.12)"/>
      <circle cx="50" cy="40" r="1" fill="rgba(255, 182, 18, 0.12)"/>
      <circle cx="80" cy="20" r="1" fill="rgba(224, 60, 49, 0.08)"/>
    </pattern>
  </defs>
  
  <!-- Base gradient background -->
  <rect width="1200" height="800" fill="url(#bgGradient)"/>
  
  <!-- Molecular patterns overlay -->
  <rect width="1200" height="800" fill="url(#molecules)" opacity="0.6"/>
  
  <!-- Data points overlay -->
  <rect width="1200" height="800" fill="url(#dataPoints)" opacity="0.4"/>
  
  <!-- Pharmaceutical Elements -->
  
  <!-- DNA Helix (top left) -->
  <g transform="translate(100, 100)" opacity="0.08">
    <path d="M0,0 Q20,20 0,40 Q-20,60 0,80 Q20,100 0,120" stroke="#E03C31" stroke-width="2" fill="none"/>
    <path d="M40,0 Q20,20 40,40 Q60,60 40,80 Q20,100 40,120" stroke="#FFB612" stroke-width="2" fill="none"/>
    <line x1="0" y1="20" x2="40" y2="20" stroke="#E03C31" stroke-width="1" opacity="0.5"/>
    <line x1="0" y1="60" x2="40" y2="60" stroke="#FFB612" stroke-width="1" opacity="0.5"/>
    <line x1="0" y1="100" x2="40" y2="100" stroke="#E03C31" stroke-width="1" opacity="0.5"/>
  </g>
  
  <!-- Laboratory Flask (top right) -->
  <g transform="translate(1000, 120)" opacity="0.1">
    <rect x="15" y="0" width="10" height="30" fill="#E03C31"/>
    <path d="M10,30 L35,30 L40,80 L5,80 Z" fill="none" stroke="#FFB612" stroke-width="2"/>
    <circle cx="12" cy="50" r="2" fill="rgba(224, 60, 49, 0.3)"/>
    <circle cx="28" cy="45" r="1.5" fill="rgba(255, 182, 18, 0.4)"/>
  </g>
  
  <!-- Capsules (scattered) -->
  <g opacity="0.06">
    <ellipse cx="200" cy="300" rx="15" ry="8" fill="#E03C31"/>
    <ellipse cx="800" cy="200" rx="12" ry="6" fill="#FFB612"/>
    <ellipse cx="950" cy="400" rx="18" ry="9" fill="#E03C31"/>
    <ellipse cx="300" cy="600" rx="14" ry="7" fill="#FFB612"/>
  </g>
  
  <!-- Blister Pack (center-left) -->
  <g transform="translate(150, 350)" opacity="0.08">
    <rect x="0" y="0" width="80" height="50" rx="5" fill="none" stroke="#E03C31" stroke-width="1"/>
    <circle cx="15" cy="15" r="8" fill="rgba(224, 60, 49, 0.2)"/>
    <circle cx="35" cy="15" r="8" fill="rgba(255, 182, 18, 0.2)"/>
    <circle cx="55" cy="15" r="8" fill="rgba(224, 60, 49, 0.2)"/>
    <circle cx="15" cy="35" r="8" fill="rgba(255, 182, 18, 0.2)"/>
    <circle cx="35" cy="35" r="8" fill="rgba(224, 60, 49, 0.2)"/>
    <circle cx="55" cy="35" r="8" fill="rgba(255, 182, 18, 0.2)"/>
  </g>
  
  <!-- Test Tubes (bottom right) -->
  <g transform="translate(900, 550)" opacity="0.1">
    <rect x="0" y="20" width="6" height="40" fill="none" stroke="#E03C31" stroke-width="1"/>
    <rect x="15" y="15" width="6" height="45" fill="none" stroke="#FFB612" stroke-width="1"/>
    <rect x="30" y="25" width="6" height="35" fill="none" stroke="#E03C31" stroke-width="1"/>
    <circle cx="3" cy="60" r="3" fill="rgba(224, 60, 49, 0.3)"/>
    <circle cx="18" cy="60" r="3" fill="rgba(255, 182, 18, 0.3)"/>
    <circle cx="33" cy="60" r="3" fill="rgba(224, 60, 49, 0.3)"/>
  </g>
  
  <!-- ECG Wave (center background) -->
  <g transform="translate(400, 400)" opacity="0.05">
    <path d="M0,0 L20,0 L25,-30 L30,60 L35,-40 L40,0 L100,0" stroke="#E03C31" stroke-width="2" fill="none"/>
  </g>
  
  <!-- Data Charts (bottom left) -->
  <g transform="translate(50, 600)" opacity="0.08">
    <!-- Bar Chart -->
    <rect x="0" y="50" width="8" height="30" fill="rgba(224, 60, 49, 0.3)"/>
    <rect x="12" y="40" width="8" height="40" fill="rgba(255, 182, 18, 0.3)"/>
    <rect x="24" y="35" width="8" height="45" fill="rgba(224, 60, 49, 0.3)"/>
    <rect x="36" y="45" width="8" height="35" fill="rgba(255, 182, 18, 0.3)"/>
    
    <!-- Line Chart -->
    <g transform="translate(60, 0)">
      <path d="M0,80 L10,60 L20,45 L30,50 L40,35" stroke="#E03C31" stroke-width="1.5" fill="none"/>
      <circle cx="0" cy="80" r="2" fill="#E03C31"/>
      <circle cx="10" cy="60" r="2" fill="#FFB612"/>
      <circle cx="20" cy="45" r="2" fill="#E03C31"/>
      <circle cx="30" cy="50" r="2" fill="#FFB612"/>
      <circle cx="40" cy="35" r="2" fill="#E03C31"/>
    </g>
  </g>
  
  <!-- Molecular Bonds Network (top center) -->
  <g transform="translate(500, 80)" opacity="0.06">
    <circle cx="0" cy="0" r="4" fill="#E03C31"/>
    <circle cx="40" cy="20" r="3" fill="#FFB612"/>
    <circle cx="20" cy="50" r="3" fill="#E03C31"/>
    <circle cx="60" cy="40" r="4" fill="#FFB612"/>
    <line x1="0" y1="0" x2="40" y2="20" stroke="#E03C31" stroke-width="1"/>
    <line x1="40" y1="20" x2="60" y2="40" stroke="#FFB612" stroke-width="1"/>
    <line x1="20" y1="50" x2="40" y2="20" stroke="#E03C31" stroke-width="1"/>
  </g>
  
  <!-- Safety Icons (dashboard style) -->
  <g transform="translate(700, 300)" opacity="0.08">
    <!-- Warning Triangle -->
    <path d="M0,20 L10,0 L20,20 Z" fill="none" stroke="#E03C31" stroke-width="1"/>
    <circle cx="10" cy="15" r="1" fill="#E03C31"/>
    
    <!-- Shield -->
    <g transform="translate(30, 0)">
      <path d="M5,0 Q0,0 0,5 L0,15 Q5,20 10,15 L10,5 Q10,0 5,0" fill="none" stroke="#FFB612" stroke-width="1"/>
      <path d="M3,8 L7,12 L13,6" stroke="#FFB612" stroke-width="1" fill="none" transform="translate(-2, 0)"/>
    </g>
  </g>
  
  <!-- Measuring Instruments (calipers) -->
  <g transform="translate(400, 600)" opacity="0.1">
    <path d="M0,0 L0,30 M20,0 L20,30" stroke="#E03C31" stroke-width="2"/>
    <path d="M0,15 L20,15" stroke="#FFB612" stroke-width="1"/>
    <circle cx="0" cy="15" r="2" fill="none" stroke="#E03C31" stroke-width="1"/>
    <circle cx="20" cy="15" r="2" fill="none" stroke="#E03C31" stroke-width="1"/>
  </g>
  
  <!-- Pipette -->
  <g transform="translate(600, 150)" opacity="0.09">
    <rect x="8" y="0" width="4" height="15" fill="#FFB612"/>
    <rect x="6" y="15" width="8" height="40" fill="none" stroke="#E03C31" stroke-width="1"/>
    <circle cx="10" cy="50" r="3" fill="rgba(224, 60, 49, 0.3)"/>
  </g>
</svg>