<svg xmlns="http://www.w3.org/2000/svg" viewBox="0 0 1200 800">
  <defs>
    <linearGradient id="bgGradient" x1="0%" y1="0%" x2="100%" y2="100%">
      <stop offset="0%" style="stop-color:#87CEEB;stop-opacity:1" />
      <stop offset="100%" style="stop-color:#B0E0E6;stop-opacity:1" />
    </linearGradient>
    <pattern id="dots" x="0" y="0" width="100" height="100" patternUnits="userSpaceOnUse">
      <circle cx="50" cy="50" r="2" fill="rgba(255,255,255,0.3)"/>
    </pattern>
  </defs>
  
  <!-- Background -->
  <rect width="1200" height="800" fill="url(#bgGradient)"/>
  <rect width="1200" height="800" fill="url(#dots)"/>
  
  <!-- Pills and tablets -->
  <ellipse cx="150" cy="120" rx="25" ry="15" fill="#FF8C42" opacity="0.8"/>
  <ellipse cx="200" cy="100" rx="25" ry="15" fill="#FF8C42" opacity="0.8"/>
  <ellipse cx="100" cy="140" rx="25" ry="15" fill="#FF8C42" opacity="0.8"/>
  
  <!-- Capsules -->
  <rect x="850" y="80" width="30" height="60" rx="15" fill="#4A90E2" opacity="0.8"/>
  <rect x="850" y="80" width="30" height="30" rx="15" fill="#FFFFFF" opacity="0.9"/>
  
  <rect x="950" y="650" width="30" height="60" rx="15" fill="#4A90E2" opacity="0.8"/>
  <rect x="950" y="650" width="30" height="30" rx="15" fill="#FFFFFF" opacity="0.9"/>
  
  <!-- Medicine bottle -->
  <rect x="1000" y="150" width="80" height="120" rx="10" fill="#D2691E" opacity="0.8"/>
  <rect x="1010" y="140" width="60" height="20" rx="10" fill="#8B4513" opacity="0.9"/>
  <rect x="1020" y="170" width="40" height="8" rx="4" fill="#FFFFFF" opacity="0.7"/>
  <rect x="1015" y="185" width="50" height="6" rx="3" fill="#CCCCCC" opacity="0.6"/>
  <rect x="1015" y="200" width="50" height="6" rx="3" fill="#CCCCCC" opacity="0.6"/>
  
  <!-- Stethoscope -->
  <path d="M50 500 Q100 450 150 500 Q200 550 250 500" stroke="#2C3E50" stroke-width="8" fill="none" opacity="0.7"/>
  <circle cx="50" cy="500" r="20" fill="#2C3E50" opacity="0.7"/>
  <circle cx="50" cy="500" r="12" fill="#FFFFFF" opacity="0.8"/>
  <circle cx="250" cy="500" r="20" fill="#2C3E50" opacity="0.7"/>
  <circle cx="250" cy="500" r="12" fill="#FFFFFF" opacity="0.8"/>
  
  <!-- Report/Chart -->
  <rect x="950" y="400" width="120" height="160" rx="8" fill="#FFFFFF" opacity="0.9"/>
  <rect x="960" y="420" width="100" height="8" rx="4" fill="#CCCCCC" opacity="0.6"/>
  <rect x="960" y="440" width="80" height="6" rx="3" fill="#CCCCCC" opacity="0.6"/>
  <rect x="960" y="455" width="90" height="6" rx="3" fill="#CCCCCC" opacity="0.6"/>
  
  <!-- Chart bars -->
  <rect x="970" y="490" width="15" height="40" fill="#4A90E2" opacity="0.8"/>
  <rect x="990" y="480" width="15" height="50" fill="#4A90E2" opacity="0.8"/>
  <rect x="1010" y="470" width="15" height="60" fill="#4A90E2" opacity="0.8"/>
  <rect x="1030" y="485" width="15" height="45" fill="#4A90E2" opacity="0.8"/>
  
  <!-- Scattered pills -->
  <circle cx="120" cy="650" r="8" fill="#FF8C42" opacity="0.7"/>
  <circle cx="170" cy="680" r="8" fill="#FF8C42" opacity="0.7"/>
  <circle cx="220" cy="660" r="8" fill="#FF8C42" opacity="0.7"/>
  
  <circle cx="800" cy="600" r="10" fill="#4A90E2" opacity="0.7"/>
  <circle cx="850" cy="620" r="10" fill="#4A90E2" opacity="0.7"/>
  
  <!-- Central title area (transparent for text overlay) -->
  <rect x="300" y="300" width="600" height="200" fill="rgba(255,255,255,0.1)" rx="20"/>
  
  <!-- More scattered medical elements -->
  <circle cx="80" cy="300" r="6" fill="#FFFFFF" opacity="0.6"/>
  <path d="M80 294 L80 306 M74 300 L86 300" stroke="#E03C31" stroke-width="3" opacity="0.8"/>
  
  <circle cx="1100" cy="300" r="6" fill="#FFFFFF" opacity="0.6"/>
  <path d="M1100 294 L1100 306 M1094 300 L1106 300" stroke="#E03C31" stroke-width="3" opacity="0.8"/>
</svg>